<svg width="60" height="62" viewBox="0 0 60 62" fill="none" xmlns="http://www.w3.org/2000/svg">
<rect y="0.97998" width="60" height="60.08" rx="8" fill="#F3F6FF"/>
<g clip-path="url(#clip0_199_163)">
<g clip-path="url(#clip1_199_163)">
<path d="M38.531 33.4629C39.135 33.4629 39.625 33.9529 39.625 34.5569V35.8699C39.625 36.4739 39.135 36.9639 38.531 36.9639H36.015C35.411 36.9639 34.921 36.4739 34.921 35.8699V34.5579C34.921 33.9539 35.411 33.4639 36.015 33.4639L38.531 33.4629ZM41.812 31.4939V28.2129H18.188V36.9559C18.1885 37.5361 18.4192 38.0923 18.8294 38.5025C19.2397 38.9127 19.7959 39.1434 20.376 39.1439H39.626C40.2061 39.1434 40.7624 38.9127 41.1726 38.5025C41.5828 38.0923 41.8135 37.5361 41.814 36.9559C41.814 36.3519 42.304 35.8619 42.908 35.8619C43.512 35.8619 44 36.3519 44 36.9559C43.9987 38.1158 43.5373 39.2279 42.7171 40.0481C41.8969 40.8682 40.7849 41.3296 39.625 41.3309H20.375C19.2151 41.3296 18.1031 40.8682 17.2829 40.0481C16.4627 39.2279 16.0013 38.1158 16 36.9559V25.1439C16.0013 23.984 16.4627 22.872 17.2829 22.0518C18.1031 21.2316 19.2151 20.7702 20.375 20.7689H39.625C40.7849 20.7702 41.8969 21.2316 42.7171 22.0518C43.5373 22.872 43.9987 23.984 44 25.1439V31.4939C44 32.0979 43.51 32.5879 42.906 32.5879C42.302 32.5879 41.812 32.0979 41.812 31.4939ZM41.812 26.0249V25.1429C41.8112 24.5631 41.5805 24.0073 41.1706 23.5974C40.7606 23.1874 40.2048 22.9567 39.625 22.9559H20.375C19.795 22.9567 19.2391 23.1875 18.8291 23.5977C18.4191 24.0079 18.1885 24.564 18.188 25.1439V26.0259H41.813L41.812 26.0249ZM21.469 30.3999C20.865 30.3999 20.375 30.8899 20.375 31.4939C20.375 32.0979 20.865 32.5879 21.469 32.5879H30.492C31.096 32.5879 31.586 32.0979 31.586 31.4939C31.586 30.8899 31.096 30.3999 30.492 30.3999H21.469Z" fill="url(#paint0_linear_199_163)"/>
</g>
</g>
<defs>
<linearGradient id="paint0_linear_199_163" x1="16" y1="31.0989" x2="44" y2="31.0989" gradientUnits="userSpaceOnUse">
<stop stop-color="#6366F1"/>
<stop offset="0.5" stop-color="#8B5CF6"/>
<stop offset="1" stop-color="#D946EF"/>
</linearGradient>
<clipPath id="clip0_199_163">
<rect width="28" height="28" fill="white" transform="translate(16 17.0499)"/>
</clipPath>
<clipPath id="clip1_199_163">
<rect width="28" height="28" fill="white" transform="translate(16 17.0499)"/>
</clipPath>
</defs>
</svg>
